<!DOCTYPE svg PUBLIC "-//W3C//DTD SVG 1.1//EN" "http://www.w3.org/Graphics/SVG/1.1/DTD/svg11.dtd">
<!-- Uploaded to: SVG Repo, www.svgrepo.com, Transformed by: SVG Repo Mixer Tools -->
<svg fill="#000000" height="256px" width="256px" version="1.1" id="Layer_1" xmlns="http://www.w3.org/2000/svg" xmlns:xlink="http://www.w3.org/1999/xlink" viewBox="-51.2 -51.2 614.40 614.40" xml:space="preserve" stroke="#000000" stroke-width="0.00512" transform="matrix(1, 0, 0, 1, 0, 0)rotate(0)">
<g id="SVGRepo_bgCarrier" stroke-width="0"/>
<g id="SVGRepo_iconCarrier"> <g> <g> <path d="M512,234.667c0-11.776-9.536-21.333-21.333-21.333H466.56L446.123,66.283C440.981,28.501,408.384,0,370.283,0H141.717 c-38.101,0-70.699,28.501-75.819,66.219L45.44,213.333H21.333C9.536,213.333,0,222.891,0,234.667 c0,9.835,6.784,17.749,15.829,20.224C5.995,267.285,0,282.923,0,298.667c0,24.128,13.163,45.973,33.771,57.557 C60.437,449.856,148.373,512,256,512c107.605,0,195.541-62.165,222.229-155.776C498.837,344.64,512,322.795,512,298.667 c0-15.744-5.995-31.381-15.829-43.776C505.216,252.416,512,244.501,512,234.667z M395.541,413.312 c-1.941,5.312-5.888,9.643-11.029,12.032c-15.189,7.104-31.189,10.475-46.912,10.475c-30.805,0-60.608-12.949-81.771-35.797 c-21.163,22.848-50.987,35.797-81.792,35.797c-15.744,0-31.723-3.371-46.912-10.475c-5.12-2.389-9.088-6.72-11.029-12.032 c-1.899-5.333-1.664-11.179,0.747-16.32c24.619-52.651,85.397-76.459,138.987-56.747c53.568-19.712,114.368,4.096,138.987,56.747 C397.205,402.133,397.461,407.979,395.541,413.312z M170.667,298.667c0-11.776,9.557-21.333,21.333-21.333 s21.333,9.557,21.333,21.333c0,11.797-9.557,21.333-21.333,21.333S170.667,310.464,170.667,298.667z M298.667,298.667 c0-11.776,9.557-21.333,21.333-21.333s21.333,9.557,21.333,21.333c0,11.797-9.557,21.333-21.333,21.333 S298.667,310.464,298.667,298.667z M88.491,213.334L88.491,213.334L108.16,72.043c2.283-16.747,16.704-29.376,33.557-29.376 h228.565c16.853,0,31.275,12.629,33.579,29.44l19.648,141.227H88.491z"/> </g> </g> </g>
</svg>