<?xml version="1.0" encoding="iso-8859-1"?>
<!-- Uploaded to: SVG Repo, www.svgrepo.com, Transformed by: SVG Repo Mixer Tools -->
<svg fill="#000000" height="800px" width="800px" version="1.1" id="Layer_1" xmlns="http://www.w3.org/2000/svg" xmlns:xlink="http://www.w3.org/1999/xlink" 
	 viewBox="0 0 512 512" xml:space="preserve">
<g>
	<g>
		<g>
			<path d="M191.556,304.444c-8.832,0-16,7.168-16,16c0,8.832,7.168,16,16,16c8.832,0,16-7.168,16-16
				C207.556,311.612,200.388,304.444,191.556,304.444z"/>
			<path d="M460.434,235.873c-1.099-1.233-2.296-2.481-3.591-3.769c-1.682-1.673-3.514-3.362-5.479-5.072
				c-2.396-2.084-4.756-4.008-6.92-5.7l-3.932-10.455c-8.455-26.961-13.12-54.08-14.08-79.88c0.139-0.982,0.235-1.978,0.235-2.998
				c0-1.386-0.143-2.738-0.396-4.051c-0.385-34.924,6.133-67.136,19.366-92.856C452.941,16.895,442.633,0,426.667,0H85.333
				C70.474,0,60.167,14.811,65.329,28.744c24.487,66.1,26.55,132.891,6.419,181.479l-4.185,11.105
				c-2.167,1.692-4.528,3.618-6.926,5.704c-1.965,1.709-3.797,3.398-5.479,5.072c-1.295,1.288-2.492,2.536-3.591,3.769
				C22.165,241.658,0,267.566,0,298.667c0,29.521,19.971,54.363,47.143,61.758C74.385,445.762,163.964,512,256,512
				s181.615-66.238,208.857-151.575C492.029,353.03,512,328.188,512,298.667C512,267.566,489.835,241.658,460.434,235.873z
				 M127.765,149.333h257.184c1.89,21.019,5.831,42.513,11.843,64H116.129C122.767,193.594,126.629,172.021,127.765,149.333z
				 M394.983,42.667c-6.27,19.847-9.932,41.413-11.004,64H126.794c-1.928-20.967-5.95-42.461-12.062-64H394.983z M85.009,259.704
				c-0.127,0.722-0.269,1.338-0.418,1.877C84.757,260.967,84.897,260.341,85.009,259.704z M84.59,261.586
				c-0.097,0.349-0.197,0.658-0.3,0.942C84.39,262.215,84.503,261.907,84.59,261.586z M185.698,453.304
				c2.814,0.285,5.628,0.431,8.435,0.431c23.296,0,45.845-9.771,61.867-27.072c16.021,17.301,38.571,27.072,61.867,27.072
				c2.805,0,5.621-0.146,8.437-0.432c-22.198,10.206-46.233,16.031-70.304,16.031C231.93,469.333,207.896,463.509,185.698,453.304z
				 M336.47,333.566c-0.012,0.014-0.024,0.027-0.036,0.041c-3.912,4.72-9.818,7.726-16.434,7.726
				c-11.791,0-21.333-9.542-21.333-21.333s9.542-21.333,21.333-21.333s21.333,9.542,21.333,21.333
				C341.333,325.155,339.509,329.881,336.47,333.566z M362.649,431.448c0.035-2.415-0.454-4.834-1.497-7.069
				c-8.696-18.607-23.361-32.443-40.649-40.392c8.384-0.065,16.38-1.742,23.701-4.735c9.864,15.075,23.373,25.553,41.596,31.489
				C378.698,418.215,370.933,425.151,362.649,431.448z M448,320c-9.931,0-18.548,6.852-20.785,16.528
				c-2.984,12.909-7.881,25.421-14.336,37.277c-1.492-0.638-3.078-1.119-4.747-1.409c-16.276-2.826-25.183-9.12-31.585-22.411
				C381.298,341.04,384,330.838,384,320c0-35.355-28.645-64-64-64s-64,28.645-64,64c0,24.395,13.64,45.59,33.71,56.39
				c-11.2-0.602-22.657,1-33.71,5.067c-40.533-14.933-86.528,3.072-105.152,42.923c-1.044,2.235-1.532,4.653-1.497,7.069
				c-31.864-24.224-56.02-57.959-64.566-94.92C82.548,326.852,73.931,320,64,320c-11.791,0-21.333-9.542-21.333-21.333
				S52.209,277.333,64,277.333c8.881,0,16.648-5.478,19.816-13.469c0.362-0.411,0.836-0.918,1.433-1.512
				c0.956-0.951,2.101-2.007,3.389-3.128c1.299-1.13,2.616-2.221,3.868-3.224H256h64h99.494c1.252,1.003,2.569,2.094,3.868,3.224
				c1.288,1.121,2.433,2.176,3.389,3.128c0.569,0.566,1.041,1.066,1.398,1.468c3.155,8.02,10.951,13.514,19.851,13.514
				c11.791,0,21.333,9.542,21.333,21.333S459.791,320,448,320z"/>
		</g>
	</g>
</g>
</svg>